<?xml version="1.0" encoding="utf-8"?>
<!-- Generator: Adobe Illustrator 24.0.0, SVG Export Plug-In . SVG Version: 6.00 Build 0)  -->
<svg version="1.1" id="Layer_1" xmlns="http://www.w3.org/2000/svg" xmlns:xlink="http://www.w3.org/1999/xlink" x="0px" y="0px"
	 viewBox="0 0 978.1 1004.7" style="enable-background:new 0 0 978.1 1004.7;" xml:space="preserve">
<style type="text/css">
	.st0{fill:#F1F9FF;}
</style>
<path class="st0" d="M605.1,276.9c-1.2-0.8-2.6-1-4-0.7c-1.4,0.3-2.5,1.1-3.3,2.3c-1.5,2.5-0.8,5.7,1.7,7.3c2.4,1.5,5.5,0.8,7.1-1.4
	l0.1-0.2C608.3,281.7,607.5,278.5,605.1,276.9z M627.2,687.1c-0.2-3.6-1.7-6.9-4.2-9.5c-2.8-2.8-6.5-4.4-10.4-4.4l0-1l0,1
	c-7.9,0-14.5,6.1-14.9,14H627.2z M147.7,373.1l-19.3,33.3l38.5,0L147.7,373.1z M468.7,699.3H439V729h29.6V699.3z M470.8,320.4h-29.7
	v29.6h29.7V320.4z M232,808.4c5.3-2.7,7.5-9.2,4.9-14.6l0,0c-1.3-2.6-3.5-4.5-6.3-5.4c-1.1-0.4-2.3-0.6-3.4-0.6
	c-1.7,0-3.3,0.4-4.8,1.2c-5.4,2.7-7.5,9.2-4.9,14.6C220.1,809,226.6,811.1,232,808.4z M231.6,396.3c-0.9-0.5-1.8-0.8-2.8-0.8
	c-1.8,0-3.5,0.9-4.5,2.5c-0.7,1.2-1,2.6-0.7,4s1.1,2.5,2.3,3.3c2.4,1.5,5.5,0.8,7.1-1.5l0.1-0.2C234.8,401.1,234,397.9,231.6,396.3z
	 M535.9,255.5l0-38.5l-33.3,19.2L535.9,255.5z M537.6,613.9l27.2-27.2l-37.2-10L537.6,613.9z M579.2,443.6l-37.2-10l9.9,37.2
	L579.2,443.6z M625.2,488.6c0-4-1.6-7.7-4.4-10.5c-2.6-2.6-5.9-4.1-9.5-4.3v29.6C619,502.9,625.2,496.5,625.2,488.6z M216.2,465.9
	c-7.8,0.1-14.2,6.2-14.8,13.8h29.7c-0.6-7.7-7.1-13.8-14.9-13.8C216.3,465.9,216.3,465.9,216.2,465.9z M231.6,977.3
	c-2.5-1.5-5.7-0.8-7.3,1.7c-0.7,1.2-1,2.6-0.7,4c0.3,1.3,1,2.4,2.1,3.1h0.1l0.2,0.2c2.4,1.4,5.4,0.8,7-1.5l0.1-0.2
	c0.7-1.2,1-2.6,0.7-4S232.8,978.1,231.6,977.3z M242.1,116.3l38.5,0L261.4,83L242.1,116.3z M115.1,117.3l0-0.7
	c-0.2-3.7-1.7-7.1-4.4-9.8c-2.6-2.6-5.9-4.1-9.5-4.3v29.6C109,131.6,115.1,125.2,115.1,117.3z M288.2,919.3l38.5,0L307.4,886
	L288.2,919.3z M502.4,669.5c1.2,0.7,2.6,1,4,0.7c1.4-0.3,2.5-1.1,3.3-2.3l0.1-0.1c0.7-1.2,0.9-2.5,0.6-3.8c-0.3-1.4-1.1-2.5-2.3-3.3
	c-1.2-0.7-2.6-1-4-0.7c-1.4,0.3-2.5,1.1-3.3,2.3C499.2,664.7,500,668,502.4,669.5z M328,600.9L328,600.9c-4,0-7.7,1.5-10.5,4.4
	c-2.8,2.8-4.4,6.6-4.4,10.5c0,4,1.5,7.7,4.4,10.5c2.8,2.8,6.6,4.4,10.5,4.4h0c8.2,0,14.9-6.7,14.9-14.9v-0.6
	c-0.1-3.8-1.7-7.3-4.4-10C335.8,602.5,332,600.9,328,600.9z M242.1,697.3l38.5,0L261.4,664L242.1,697.3z M169.4,548.7h-29.6v29.7
	h29.6V548.7z M42.9,231l5,18.6l0,0l5,18.6L80.1,241L42.9,231z M101.2,683.5v29.6c7.7-0.5,13.9-7,13.9-14.8l0-0.7
	C114.8,690.1,108.7,684,101.2,683.5z M439,148h29.6v-29.6H439V148z M384.1,221.4c-7.9,0-14.4,6.2-14.9,13.9H399
	C398.5,227.5,392,221.4,384.1,221.4z M393.8,563.5l0-0.5c-0.1-3.8-1.7-7.3-4.4-10c-2.6-2.6-5.9-4.1-9.5-4.3v29.6
	C387.6,577.8,393.7,571.3,393.8,563.5z M384.1,802.4c-7.9,0-14.4,6.2-14.9,13.9H399C398.5,808.5,392,802.4,384.1,802.4z
	 M744.2,683.5h-29.7v29.7h29.7V683.5z M290.7,232.8c2.4,1.5,5.5,0.8,7.1-1.4l0.1-0.2c1.5-2.5,0.8-5.7-1.7-7.3
	c-0.9-0.5-1.8-0.8-2.8-0.8c-1.8,0-3.5,0.9-4.5,2.5C287.5,228,288.2,231.3,290.7,232.8z M714.5,503.4h29.7v-29.7h-29.7V503.4z
	 M929.4,578.3v-29.7h-29.6v29.7H929.4z M717,370.1c8,0,14.6-6.4,14.9-14.4l0-0.5c0-8.2-6.7-14.9-14.9-14.9
	c-8.2,0-14.9,6.7-14.9,14.9S708.8,370.1,717,370.1L717,370.1z M959.4,480.7c0-9,7.2-16.5,16.1-16.9c6.4-93.7-45-177.7-131.1-214.3
	l-7.1-3l-25.5,25.5l-11-41L344.7,37.4c-1.3,8.1-8.3,14.3-16.7,14.3h0c-4.2,0-8.2-1.5-11.3-4.3c-6.6-5.9-7.5-15.9-2.2-22.8l-12.1-5.1
	c-19.6-8.4-40.3-13.8-61.4-16.2c-0.2,0.1-0.3,0.2-0.5,0.3l-0.2,0.1L236,8.8l4.4,5.2l0.4,0.2c3.4,1.8,7.2,3.9,7.2,9.1l0,2.8
	l-8.9-10.6c-2.2-1.2-5.1-2.9-5.3-6.3l-0.3-0.4l0.3-0.4c0.2-2.7,2-4.3,3.9-5.5C127.4-7.4,23.4,72.2,5,181.6l0.3,0.5l5.2,4.3l5.2-4.4
	l0.2-0.3c1.7-3.2,3.9-7.2,9.2-7.2h2.7l-10.6,8.9c-1.2,2.2-2.9,5.1-6.4,5.3l-0.4,0.3l-0.4-0.3c-2.8-0.2-4.4-2-5.5-3.9
	c-3.2,21-3.3,42.2-0.3,63.2l15.3,110.5l0.8-1l0,2.7c0,0.8-0.1,1.6-0.3,2.3l56.2,406.1l6.6-5.5l0.2-0.4c1.8-3.4,3.9-7.2,9.2-7.2h2.7
	l-10.5,8.9c-1.3,2.3-3,5.4-6.7,5.4l-1.2,0l6.4,46.4c10.5,76,58.9,139.2,129.6,169.2c70.6,30,149.8,20.9,211.7-24.3l38.2-27.9h-23.2
	v-33.7h33.6v26l414.6-302.5c16.9-12.3,31.6-26.6,44-42.6h-33.6v-33.7h33.6v33.6c22.1-28.5,36.7-62.2,42.2-98.5h-14.2L959.4,480.7z
	 M355.8,138.6c-2.2-1.2-5.1-2.9-5.3-6.3l-0.3-0.4l0.3-0.4c0.2-3.5,3.1-5.1,5.3-6.3l7.2-8.5l4.2-4.2l-2.5,5.2l0,0.1
	c-0.2,5-4.1,7.1-7.2,8.8l-0.4,0.2l-4.4,5.2l4.4,5.2l0.3,0.2c3,1.6,6.7,3.6,7.2,8.2h1.4l-1.4,1.4l0,2.3l-0.3-0.4
	c-1,3.6-4.2,5.3-6.9,6.8l-0.4,0.2l-4.4,5.2l4.4,5.2l0.3,0.2c3.2,1.7,7.2,3.9,7.2,9.2v2.7l-8.9-10.6c-2.2-1.2-5.1-2.9-5.3-6.3
	l-0.3-0.4l0.3-0.4c0.2-3.5,3.1-5.1,5.4-6.4l6.6-7.8L355.8,138.6z M300.6,811.7l-1,1.5c-1.4,2.2-3.7,3.4-6.2,3.4
	c-1.3,0-2.6-0.4-3.8-1.1c-3.4-2.1-4.4-6.6-2.3-10c2.1-3.4,6.6-4.4,10-2.3l0,0c2.9,1.8,4.1,5.4,3,8.5H300.6z M297.7,504.5
	c0-9.3,7.6-16.9,16.9-16.9s16.9,7.6,16.9,16.9c0,4.5-1.8,8.8-5,12c-3.2,3.2-7.4,5-12,5h0C305.3,521.4,297.7,513.8,297.7,504.5z
	 M287.3,224.5c2.1-3.4,6.6-4.4,10-2.3l0,0c2.9,1.8,4.1,5.4,3,8.5h0.2l-1,1.5c-1.4,2.2-3.7,3.4-6.2,3.4c-1.3,0-2.6-0.4-3.8-1.1
	C286.2,232.4,285.2,227.9,287.3,224.5z M307.4,301l22.7,39.4l-45.4,0L307.4,301z M221.3,206.2c6.2-3.1,13.6-0.7,17,5.2h0.4l0,0.8
	c3,6.3,0.4,13.9-5.9,17c-1.8,0.9-3.8,1.4-5.7,1.4c-4.7,0-9.3-2.6-11.5-7.1C212.4,217.2,215,209.4,221.3,206.2z M181,275.3
	c5.3,0,7.4,4,9.2,7.2l0.2,0.4l7.4,6.3l7.4-6.3l0.2-0.4c1.7-3.2,3.9-7.2,9.2-7.2h4.5c5.3,0,7.3,3.8,9.2,7.2l0.2,0.4l7.4,6.3l7.4-6.3
	l0.2-0.4c1.7-3.2,3.9-7.2,9.2-7.2h2.7l-10.5,8.9c-1.3,2.3-3,5.4-6.7,5.4h0l-1.8,0l0,0h-2.7c-3.7,0-5.5-3-6.7-5.4l-10.1-8.5l-10,8.5
	c-1.3,2.3-3,5.4-6.8,5.4h-4.5c-3.7,0-5.5-3.1-6.7-5.4l-10.5-8.9H181z M248,578.1l-0.3-0.4c-1,3.6-4.2,5.4-6.9,6.8l-0.4,0.2l-4.4,5.2
	l4.4,5.2l0.3,0.2c3.2,1.7,7.2,3.9,7.2,9.2l0,2.7l-8.9-10.5c-2.2-1.2-5.2-2.9-5.4-6.4l-0.3-0.4l0.3-0.4c0.2-3.5,3.1-5.1,5.4-6.4
	l6.6-7.8l-6.6-7.8c-2.2-1.2-5.2-2.9-5.4-6.4l-0.3-0.4l0.3-0.4c0.2-3.5,3.1-5.1,5.4-6.4l8.9-10.5v2.7c0,5.3-4,7.4-7.2,9.2l-0.4,0.2
	l-4.3,5.2l4.4,5.2l0.4,0.2c3,1.6,6.7,3.6,7.2,8.2h1.5l-1.5,1.4L248,578.1z M235.9,403.1l-1,1.5c-1.4,2.2-3.7,3.4-6.2,3.4
	c-1.3,0-2.6-0.4-3.8-1.1c-3.4-2.1-4.4-6.6-2.3-10c2.1-3.4,6.6-4.4,10-2.3l0,0c2.9,1.8,4.1,5.4,3,8.5H235.9z M233.3,480.7l0,1h-33.8
	l0-1c0.1-9.2,7.6-16.7,16.8-16.8h0c0,0,0.1,0,0.1,0C225.6,463.9,233.2,471.4,233.3,480.7z M221.4,787.2c3.1-1.5,6.6-1.8,9.8-0.7
	c3.1,1,5.6,3.1,7.1,5.9h0.4l0,0.8c3,6.3,0.4,13.9-5.9,17c-1.8,0.9-3.8,1.4-5.7,1.4c-4.7,0-9.3-2.6-11.5-7.1
	C212.4,798.2,215,790.4,221.4,787.2z M147.7,369.1l22.7,39.4l-45.4,0L147.7,369.1z M99.2,100.5h1c4.5,0,8.7,1.7,11.9,4.9
	c3.2,3.2,5,7.4,5,11.9l0,1h-0.1c-0.5,8.8-7.9,15.8-16.8,15.8h0l-1,0V100.5z M58.6,174.5c5.3,0,7.4,4,9.2,7.2l0.2,0.4l7.4,6.2
	l7.4-6.3l0.2-0.4c1.8-3.4,3.9-7.2,9.2-7.2h2.7l-10.5,8.9c-1.3,2.3-3,5.4-6.7,5.4l-2.8,0l0,0h-1.8c-3.7,0-5.5-3.1-6.7-5.4l-10.5-8.9
	H58.6z M40.1,228.2L84,240l-32.1,32.1L40.1,228.2z M117.1,699.3c-0.5,8.8-7.9,15.8-16.8,15.8h0l-1,0v-33.7h1
	c9.3,0,16.9,7.5,16.9,16.8L117.1,699.3L117.1,699.3z M129.6,517.8h-4.5c-3.7,0-5.5-3-6.7-5.4l-10.1-8.5l-10.1,8.5
	c-1.3,2.3-3,5.4-6.7,5.4h-1.8l0,0l-2.8,0c-3.7,0-5.5-3-6.7-5.4l-10.5-8.9h2.7c5.3,0,7.4,4,9.2,7.2l0.2,0.3l7.4,6.3l7.4-6.3l0.2-0.4
	c1.7-3.2,3.9-7.2,9.2-7.2l2.7,0l0,0h1.8c5.3,0,7.3,3.8,9.2,7.2l0.2,0.4l7.4,6.3l7.4-6.3l0.2-0.4c1.7-3.2,3.9-7.2,9.2-7.2l2.7,0
	l-10.5,8.9C135.1,514.7,133.3,517.8,129.6,517.8z M171.4,580.3h-33.6v-33.7h33.6V580.3z M235.9,984.1l-1,1.5
	c-1.4,2.2-3.7,3.4-6.2,3.4c-1.2,0-2.5-0.3-3.6-1h0l-0.2-0.2c0,0,0,0,0,0l-0.1-0.1c-1.6-1-2.7-2.6-3.1-4.5c-0.4-1.9-0.1-3.8,0.9-5.5
	c2.1-3.4,6.6-4.4,10-2.3c1.6,1,2.8,2.6,3.2,4.5c0.3,1.3,0.2,2.7-0.2,3.9H235.9z M244.9,865.1c-1.3,2.3-3,5.4-6.7,5.4h0l-1.8,0l0,0
	h-2.7c-3.7,0-5.5-3.1-6.7-5.4l-10-8.5l-10,8.5c-1.3,2.3-3,5.4-6.8,5.4h-4.5c-3.7,0-5.5-3-6.7-5.4l-10.6-8.9h2.7c5.3,0,7.4,4,9.2,7.2
	l0.2,0.4l7.4,6.3l7.4-6.3l0.2-0.4c1.7-3.2,3.9-7.2,9.2-7.2h1.8l0,0h2.7c5.3,0,7.4,4,9.2,7.2l0.2,0.4l7.4,6.3l7.4-6.3l0.2-0.4
	c1.7-3.2,3.9-7.2,9.2-7.2h2.7L244.9,865.1z M238.6,699.3l22.7-39.3l22.7,39.4L238.6,699.3z M238.6,118.3L261.4,79l11.3,19.7v0
	l11.3,19.7L238.6,118.3z M284.7,921.3l22.7-39.3l22.7,39.4L284.7,921.3z M344.9,616.8c-0.5,8.9-7.9,15.9-16.9,15.9h0
	c-4.5,0-8.8-1.8-12-5c-3.2-3.2-5-7.4-5-12c0-4.5,1.8-8.8,5-12c3.2-3.2,7.4-5,12-5h0c4.5,0,8.8,1.8,12,5c3.2,3.2,5,7.4,5,12
	L344.9,616.8z M357.2,718.1l0.3,0.2c3.2,1.7,6.7,3.6,7.2,8.2h1.4l-1.4,1.4l0,2.3l-0.3-0.4c-1,3.6-4.2,5.3-6.9,6.8l-0.4,0.2l-4.4,5.2
	l4.4,5.2l0.3,0.2c3.2,1.7,7.2,3.9,7.2,9.2v2.7l-8.9-10.6c-2.2-1.2-5.1-2.9-5.3-6.3l-0.3-0.4l0.3-0.4c0.2-3.5,3.1-5.1,5.4-6.4
	l6.6-7.8l-6.6-7.8c-2.2-1.2-5.1-2.9-5.3-6.3l-0.3-0.4l0.3-0.4c0.2-3.5,3.1-5.1,5.3-6.3l7.2-8.5l4.1-4.1l-2.4,5.1l0,0.1
	c-0.2,5-4.1,7.1-7.2,8.8l-0.4,0.2l-4.4,5.2L357.2,718.1z M401,818.3h-33.8v-1c0-9.3,7.6-16.9,16.9-16.9S401,808,401,817.3V818.3z
	 M377.8,580.3v-33.7l1,0h0c9.3,0,16.9,7.5,16.9,16.8l0,1h0c-0.5,8.8-7.9,15.8-16.9,15.8h0L377.8,580.3z M401,237.3h-33.8v-1
	c0-9.3,7.6-16.9,16.9-16.9S401,227,401,236.3V237.3z M437,116.3h33.6V150H437V116.3z M426.6,427.1l-0.3-0.4l0.3-0.4
	c0.2-3.5,3.1-5.1,5.4-6.4l6.6-7.8l-6.6-7.8c-2.2-1.2-5.2-2.9-5.4-6.4l-0.3-0.4l0.3-0.4c0.2-3.4,3.1-5.1,5.3-6.4l7.4-8.8h1.5l0,1
	c0,5.3-3.8,7.4-7.2,9.2l-0.4,0.2l-4.4,5.2l4.3,5.2l0.4,0.2c3,1.6,6.7,3.6,7.2,8.2h0.1l0,1c0,0.2,0,0.4,0,0.7l0,2.1l-0.3-0.3
	c-1,3.6-4.2,5.3-6.9,6.8l-0.4,0.2l-4.4,5.2l4.4,5.2l0.4,0.2c3.4,1.8,7.2,3.9,7.2,9.2l0,2.7l-8.9-10.5
	C429.7,432.3,426.8,430.6,426.6,427.1z M470.7,731H437v-33.7h33.6V731z M472.8,352.1h-33.7v-33.6h33.7V352.1z M766,374.4
	c0.2-3.5,3.2-5.2,5.4-6.4l8.9-10.5v2.7c0,5.3-4,7.4-7.2,9.2l-0.4,0.2l-4.3,5.1l4.3,5.1l0.4,0.2c2.9,1.6,6.4,3.4,7.1,7.6l0.1-0.1v1.7
	c0,0.2,0,0.5,0,0.7l0,2l-0.3-0.3c-1,3.6-4.1,5.2-6.9,6.8l-0.4,0.2l-4.3,5.2l4.4,5.2l0.4,0.2c3.2,1.7,7.2,3.9,7.2,9.2l0,2.7
	l-8.9-10.5c-2.2-1.2-5.2-2.9-5.4-6.4l-0.3-0.4l0.3-0.4c0.2-3.5,3.1-5.1,5.4-6.4l6.6-7.8l-6.6-7.8c-2.2-1.2-5.2-2.9-5.4-6.4l-0.3-0.4
	L766,374.4z M570.7,159.7c5.2,0,7.3,3.8,9.1,7.1l0.3,0.5l5.1,4.3l5.2-4.4l0.2-0.4c1.7-3.1,3.8-7,8.8-7.2l0.4-0.3l0.4,0.3
	c5,0.2,7,3.9,8.8,7.1l0.3,0.5l5.1,4.3l5.2-4.4l0.2-0.3c1.7-3.2,3.9-7.2,9.2-7.2h2.7l-10.6,8.9c-1,1.8-2.3,4-4.5,4.9l0.5,0.4h-2.4
	c-0.1,0-0.2,0-0.3,0l-2.8,0l0.5-0.4c-2.3-0.9-3.5-3.2-4.5-5l-7.8-6.5l-7.8,6.6c-1,1.8-2.3,4-4.5,4.9l0.5,0.4h-2.4
	c-0.1,0-0.2,0-0.3,0l-2.8,0l0.5-0.4c-2.3-0.9-3.5-3.2-4.5-5l-10.5-8.9L570.7,159.7z M609.4,283.7l-1,1.5c-1.4,2.2-3.8,3.4-6.2,3.4
	c-1.3,0-2.7-0.4-3.9-1.1l0,0c-3.4-2.1-4.4-6.6-2.3-10c1-1.6,2.6-2.8,4.5-3.2c1.9-0.4,3.8-0.1,5.5,0.9c2.9,1.8,4.1,5.4,3,8.5H609.4z
	 M612.4,671.1h0.1l0.1,0c9.2,0.1,16.7,7.7,16.6,17l0,1h-33.7v-1.2C595.6,678.6,603.2,671.1,612.4,671.1z M609.3,505.4v-33.7h1
	c4.5,0,8.7,1.7,11.9,4.9c3.2,3.2,5,7.4,5,11.9c0,9.3-7.6,16.8-16.9,16.8h0L609.3,505.4z M583,442.6l-32.1,32.1l-11.7-43.9L583,442.6
	z M568.7,585.7l-32.1,32.1l-11.7-43.9L568.7,585.7z M538,213.6l0,45.4l-39.3-22.7L538,213.6z M499.1,661.2c1-1.6,2.6-2.8,4.5-3.2
	c1.9-0.4,3.8-0.1,5.5,0.9c1.6,1,2.8,2.6,3.2,4.5c0.4,1.9,0.1,3.8-0.9,5.5l-0.3,0.5c-1,1.4-2.5,2.4-4.2,2.7c-0.5,0.1-1.1,0.2-1.6,0.2
	c-1.4,0-2.7-0.4-3.8-1.1l0,0C498,669.1,497,664.6,499.1,661.2z M537.9,840l-39.3-22.7l39.4-22.7L537.9,840z M621,749.6
	c-1,1.8-2.2,4-4.5,4.9l0.5,0.4h-5.5l0.5-0.4c-2.3-0.9-3.5-3.2-4.5-5l-7.8-6.6l-7.9,6.6c-1,1.8-2.2,4-4.5,4.9l0.5,0.4h-2.4
	c-0.1,0-0.2,0-0.3,0l-2.7,0l0.5-0.4c-2.3-0.9-3.5-3.2-4.5-5l-10.5-8.9h2.7c5.2,0,7.3,3.8,9.1,7.2l0.2,0.4l5.1,4.3l5.1-4.3l0.2-0.4
	c1.7-3.1,3.8-7,8.8-7.2l0,0l0.7,0c5,0.2,7,3.9,8.8,7.2l0.2,0.4l5.2,4.3l5.1-4.3l0.2-0.4c1.7-3.2,3.9-7.2,9.2-7.2h2.7L621,749.6z
	 M635.2,337.1c0,4.5-1.8,8.8-5,12c-3.2,3.2-7.4,5-12,5h0c-4.5,0-8.8-1.8-12-5c-3.2-3.2-5-7.4-5-12s1.8-8.8,5-12c3.2-3.2,7.4-5,12-5
	h0c4.5,0,8.8,1.8,12,5C633.4,328.3,635.2,332.5,635.2,337.1L635.2,337.1z M694.2,311.5L694.2,311.5c-1.4,0-2.7-0.4-3.9-1.1
	c-3.4-2.1-4.4-6.6-2.3-10c2.1-3.4,6.6-4.4,10-2.3c3.4,2.1,4.4,6.6,2.3,10l-0.3,0.5C698.7,310.5,696.5,311.5,694.2,311.5z
	 M700.1,355.2c0-9.3,7.6-16.9,16.9-16.9c9,0,16.4,7,16.9,15.9h0l0,1c0,9.3-7.6,16.9-16.9,16.9h0
	C707.7,372.1,700.1,364.6,700.1,355.2z M712.5,471.8h33.7v33.7h-33.7V471.8z M746.2,715.1h-33.7v-33.7h33.7V715.1z M774.2,630.5
	l-39.3-22.7l39.3-22.7L774.2,630.5z M788.9,665.8l-0.3,0.5c-1,1.4-2.5,2.4-4.2,2.7c-0.5,0.1-1.1,0.2-1.6,0.2c-1.4,0-2.7-0.4-3.8-1.1
	c-3.4-2.1-4.4-6.6-2.3-10c2.1-3.4,6.6-4.4,10-2.3c1.6,1,2.8,2.6,3.2,4.5S790,664.2,788.9,665.8z M896.3,512.4
	c-1.3,2.3-3,5.4-6.7,5.4h-4.5c-3.7,0-5.5-3.1-6.7-5.4l-10-8.5l-10.1,8.5c-1.3,2.3-3,5.4-6.7,5.4l-2.8,0l0,0H847
	c-3.7,0-5.5-3-6.7-5.4l-10.5-8.9h2.7c5.3,0,7.4,4,9.2,7.2l0.2,0.4l7.4,6.3l7.4-6.3l0.2-0.4c1.7-3.2,3.9-7.2,9.2-7.2h1.8l0,0h2.7
	c5.3,0,7.4,4,9.2,7.2l0.2,0.4l7.4,6.3l7.4-6.3l0.2-0.4c1.7-3.2,3.9-7.2,9.2-7.2l2.7,0L896.3,512.4z M885,408.5l22.7-39.3l22.7,39.4
	L885,408.5z M836.1,245l-33.3-14.1l10,37.4L836.1,245z M785.6,657.5c-0.9-0.5-1.8-0.8-2.8-0.8c-1.8,0-3.5,0.9-4.5,2.5
	c-1.5,2.5-0.8,5.7,1.7,7.3c1.2,0.7,2.6,1,4,0.7c1.4-0.3,2.5-1.1,3.3-2.3l0.1-0.1c0.7-1.2,0.9-2.5,0.6-3.9
	C787.6,659.4,786.8,658.2,785.6,657.5z M772.2,627l0-38.5l-33.3,19.2L772.2,627z M314.6,519.4L314.6,519.4c4,0,7.7-1.5,10.5-4.4
	c2.8-2.8,4.4-6.6,4.4-10.5c0-8.2-6.7-14.9-14.9-14.9s-14.9,6.7-14.9,14.9C299.7,512.7,306.4,519.4,314.6,519.4z M888.4,406.5l38.5,0
	l-19.2-33.3L888.4,406.5z M232,227.5c5.3-2.7,7.5-9.2,4.9-14.5l0,0c-1.9-3.8-5.7-6-9.7-6c-1.6,0-3.3,0.4-4.8,1.1
	c-5.4,2.7-7.5,9.2-4.8,14.6C220.1,228,226.6,230.1,232,227.5z M307.4,305l-19.3,33.3l38.5,0L307.4,305z M441.1,931.1h25.6l4-2.9
	v-26.7h-29.6V931.1z M535.9,836.5l0-38.5l-33.3,19.2L535.9,836.5z M296.3,804.9c-0.9-0.5-1.8-0.8-2.8-0.8c-1.8,0-3.5,0.9-4.5,2.5
	c-1.5,2.5-0.8,5.7,1.7,7.3c2.4,1.5,5.5,0.8,7.1-1.4l0.1-0.2C299.5,809.7,298.7,806.4,296.3,804.9z M618.2,322.1L618.2,322.1
	c-4,0-7.7,1.6-10.6,4.4s-4.4,6.6-4.4,10.5s1.6,7.7,4.4,10.5c2.8,2.8,6.6,4.4,10.5,4.4h0c4,0,7.7-1.6,10.5-4.4
	c2.8-2.8,4.4-6.6,4.4-10.5l1,0l-1,0c0-4-1.6-7.7-4.4-10.5C626,323.7,622.2,322.1,618.2,322.1z M697,299.8c-0.9-0.5-1.8-0.8-2.8-0.8
	c-1.8,0-3.5,0.9-4.5,2.5c-1.5,2.5-0.8,5.7,1.7,7.3c0.8,0.5,1.8,0.8,2.8,0.8h0c1.8,0,3.5-0.9,4.5-2.5l0.1-0.1
	C700.2,304.5,699.4,301.3,697,299.8z M318.1,45.9c2.7,2.5,6.3,3.8,9.9,3.8h0c7.8,0,14.3-6.1,14.8-13.8l0-0.3l-25.8-10.9l-0.2,0.2
	C311.4,31,312,40.5,318.1,45.9z M976.3,465.8c-7.9,0-14.3,6.2-14.9,13.9h13.5C975.6,475.1,976.1,470.5,976.3,465.8
	C976.4,465.8,976.4,465.8,976.3,465.8z"/>
</svg>
